<mxfile host="app.diagrams.net" modified="2023-10-10T13:27:16.904Z" agent="Mozilla/5.0 (Windows NT 10.0; Win64; x64) AppleWebKit/537.36 (KHTML, like Gecko) Chrome/117.0.0.0 Safari/537.36 Edg/117.0.2045.60" etag="cvSopP_dYoJpaFSFUtst" version="22.0.4" type="device">
  <diagram name="Página-1" id="YDmEA_bn_RE9_U1I_Mfr">
    <mxGraphModel dx="1970" dy="1179" grid="1" gridSize="10" guides="1" tooltips="1" connect="1" arrows="1" fold="1" page="1" pageScale="1" pageWidth="827" pageHeight="1169" math="0" shadow="0">
      <root>
        <mxCell id="0" />
        <mxCell id="1" parent="0" />
        <mxCell id="KXYTQ8t8NPIV74K7IWMk-5" value="" style="edgeStyle=orthogonalEdgeStyle;rounded=0;orthogonalLoop=1;jettySize=auto;html=1;" edge="1" parent="1" source="Ol56OFLsdI99NsfyFLis-3" target="KXYTQ8t8NPIV74K7IWMk-4">
          <mxGeometry relative="1" as="geometry" />
        </mxCell>
        <mxCell id="Ol56OFLsdI99NsfyFLis-3" value="Início" style="rounded=1;whiteSpace=wrap;html=1;arcSize=50;" parent="1" vertex="1">
          <mxGeometry x="175" y="40" width="90" height="40" as="geometry" />
        </mxCell>
        <mxCell id="KXYTQ8t8NPIV74K7IWMk-4" value="Zerar os contadores" style="whiteSpace=wrap;html=1;rounded=1;arcSize=0;" vertex="1" parent="1">
          <mxGeometry x="160" y="120" width="120" height="40" as="geometry" />
        </mxCell>
        <mxCell id="KXYTQ8t8NPIV74K7IWMk-10" value="" style="edgeStyle=orthogonalEdgeStyle;rounded=0;orthogonalLoop=1;jettySize=auto;html=1;entryX=0.5;entryY=0;entryDx=0;entryDy=0;" edge="1" parent="1" source="KXYTQ8t8NPIV74K7IWMk-6" target="KXYTQ8t8NPIV74K7IWMk-11">
          <mxGeometry relative="1" as="geometry">
            <mxPoint x="220" y="450" as="targetPoint" />
          </mxGeometry>
        </mxCell>
        <mxCell id="KXYTQ8t8NPIV74K7IWMk-6" value="&lt;blockquote style=&quot;margin: 0 0 0 40px; border: none; padding: 0px;&quot;&gt;&lt;div style=&quot;background-color: rgb(255, 255, 255); font-family: Consolas, &amp;quot;Courier New&amp;quot;, monospace; line-height: 1;&quot;&gt;&lt;div style=&quot;&quot;&gt;&lt;font style=&quot;font-size: 1;&quot;&gt;| 1 | Candidato 1&lt;/font&gt;&lt;/div&gt;&lt;/div&gt;&lt;div style=&quot;background-color: rgb(255, 255, 255); font-family: Consolas, &amp;quot;Courier New&amp;quot;, monospace; line-height: 1;&quot;&gt;&lt;div style=&quot;&quot;&gt;&lt;font style=&quot;font-size: 1;&quot;&gt;| 2 | Candidato 2&lt;/font&gt;&lt;/div&gt;&lt;/div&gt;&lt;div style=&quot;background-color: rgb(255, 255, 255); font-family: Consolas, &amp;quot;Courier New&amp;quot;, monospace; line-height: 1;&quot;&gt;&lt;div style=&quot;&quot;&gt;&lt;font style=&quot;font-size: 1&quot;&gt;| 3 | Candidato 3&lt;/font&gt;&lt;/div&gt;&lt;/div&gt;&lt;div style=&quot;background-color: rgb(255, 255, 255); font-family: Consolas, &amp;quot;Courier New&amp;quot;, monospace; line-height: 1;&quot;&gt;&lt;div style=&quot;&quot;&gt;&lt;font style=&quot;font-size: 1;&quot;&gt;| 5 | Voto em branco&lt;/font&gt;&lt;/div&gt;&lt;/div&gt;&lt;div style=&quot;background-color: rgb(255, 255, 255); font-family: Consolas, &amp;quot;Courier New&amp;quot;, monospace; line-height: 1;&quot;&gt;&lt;div style=&quot;&quot;&gt;&lt;font style=&quot;font-size: 1;&quot;&gt;| 8 | Voto nulo&lt;/font&gt;&lt;/div&gt;&lt;/div&gt;&lt;div style=&quot;background-color: rgb(255, 255, 255); font-family: Consolas, &amp;quot;Courier New&amp;quot;, monospace; line-height: 1;&quot;&gt;&lt;div style=&quot;&quot;&gt;&lt;font style=&quot;font-size: 1;&quot;&gt;| 0 | Encerrar&lt;/font&gt;&lt;/div&gt;&lt;/div&gt;&lt;/blockquote&gt;" style="shape=display;whiteSpace=wrap;html=1;align=left;size=0.14285714285714285;" vertex="1" parent="1">
          <mxGeometry x="110" y="230" width="210" height="100" as="geometry" />
        </mxCell>
        <mxCell id="KXYTQ8t8NPIV74K7IWMk-8" style="edgeStyle=orthogonalEdgeStyle;rounded=0;orthogonalLoop=1;jettySize=auto;html=1;exitX=0.5;exitY=1;exitDx=0;exitDy=0;entryX=0.618;entryY=-0.027;entryDx=0;entryDy=0;entryPerimeter=0;" edge="1" parent="1" source="KXYTQ8t8NPIV74K7IWMk-4" target="KXYTQ8t8NPIV74K7IWMk-6">
          <mxGeometry relative="1" as="geometry">
            <mxPoint x="250" y="270" as="targetPoint" />
            <Array as="points" />
          </mxGeometry>
        </mxCell>
        <mxCell id="KXYTQ8t8NPIV74K7IWMk-13" value="" style="edgeStyle=orthogonalEdgeStyle;rounded=0;orthogonalLoop=1;jettySize=auto;html=1;" edge="1" parent="1" source="KXYTQ8t8NPIV74K7IWMk-11" target="KXYTQ8t8NPIV74K7IWMk-12">
          <mxGeometry relative="1" as="geometry" />
        </mxCell>
        <mxCell id="KXYTQ8t8NPIV74K7IWMk-11" value="&lt;br&gt;voto" style="html=1;strokeWidth=1;shape=manualInput;whiteSpace=wrap;rounded=1;size=26;arcSize=0;" vertex="1" parent="1">
          <mxGeometry x="175" y="380" width="100" height="60" as="geometry" />
        </mxCell>
        <mxCell id="KXYTQ8t8NPIV74K7IWMk-21" value="" style="edgeStyle=orthogonalEdgeStyle;rounded=0;orthogonalLoop=1;jettySize=auto;html=1;" edge="1" parent="1" source="KXYTQ8t8NPIV74K7IWMk-12" target="KXYTQ8t8NPIV74K7IWMk-20">
          <mxGeometry relative="1" as="geometry" />
        </mxCell>
        <mxCell id="KXYTQ8t8NPIV74K7IWMk-27" value="V" style="edgeLabel;html=1;align=center;verticalAlign=middle;resizable=0;points=[];" vertex="1" connectable="0" parent="KXYTQ8t8NPIV74K7IWMk-21">
          <mxGeometry x="-0.4006" relative="1" as="geometry">
            <mxPoint x="10" y="-7" as="offset" />
          </mxGeometry>
        </mxCell>
        <mxCell id="KXYTQ8t8NPIV74K7IWMk-29" value="" style="edgeStyle=orthogonalEdgeStyle;rounded=0;orthogonalLoop=1;jettySize=auto;html=1;entryX=0.5;entryY=0;entryDx=0;entryDy=0;" edge="1" parent="1" source="KXYTQ8t8NPIV74K7IWMk-12" target="KXYTQ8t8NPIV74K7IWMk-28">
          <mxGeometry relative="1" as="geometry" />
        </mxCell>
        <mxCell id="KXYTQ8t8NPIV74K7IWMk-96" value="F" style="edgeLabel;html=1;align=center;verticalAlign=middle;resizable=0;points=[];" vertex="1" connectable="0" parent="KXYTQ8t8NPIV74K7IWMk-29">
          <mxGeometry x="-0.755" y="-1" relative="1" as="geometry">
            <mxPoint x="-9" y="-11" as="offset" />
          </mxGeometry>
        </mxCell>
        <mxCell id="KXYTQ8t8NPIV74K7IWMk-12" value="voto = 1" style="rhombus;whiteSpace=wrap;html=1;strokeWidth=1;rounded=1;arcSize=0;" vertex="1" parent="1">
          <mxGeometry x="185" y="500" width="80" height="80" as="geometry" />
        </mxCell>
        <mxCell id="KXYTQ8t8NPIV74K7IWMk-23" value="" style="edgeStyle=orthogonalEdgeStyle;rounded=0;orthogonalLoop=1;jettySize=auto;html=1;" edge="1" parent="1" source="KXYTQ8t8NPIV74K7IWMk-20" target="KXYTQ8t8NPIV74K7IWMk-22">
          <mxGeometry relative="1" as="geometry" />
        </mxCell>
        <mxCell id="KXYTQ8t8NPIV74K7IWMk-20" value="somar 1 ao contador do candidato 1" style="whiteSpace=wrap;html=1;strokeWidth=1;rounded=1;arcSize=0;" vertex="1" parent="1">
          <mxGeometry x="165" y="670" width="120" height="60" as="geometry" />
        </mxCell>
        <mxCell id="KXYTQ8t8NPIV74K7IWMk-22" value="voto != 0" style="rhombus;whiteSpace=wrap;html=1;strokeWidth=1;rounded=1;arcSize=0;" vertex="1" parent="1">
          <mxGeometry x="185" y="1030" width="80" height="80" as="geometry" />
        </mxCell>
        <mxCell id="KXYTQ8t8NPIV74K7IWMk-26" style="edgeStyle=orthogonalEdgeStyle;rounded=0;orthogonalLoop=1;jettySize=auto;html=1;exitX=0;exitY=0.5;exitDx=0;exitDy=0;entryX=0;entryY=0.5;entryDx=0;entryDy=0;entryPerimeter=0;" edge="1" parent="1" source="KXYTQ8t8NPIV74K7IWMk-22" target="KXYTQ8t8NPIV74K7IWMk-6">
          <mxGeometry relative="1" as="geometry">
            <Array as="points">
              <mxPoint x="70" y="1070" />
              <mxPoint x="70" y="280" />
            </Array>
          </mxGeometry>
        </mxCell>
        <mxCell id="KXYTQ8t8NPIV74K7IWMk-105" value="V" style="edgeLabel;html=1;align=center;verticalAlign=middle;resizable=0;points=[];" vertex="1" connectable="0" parent="KXYTQ8t8NPIV74K7IWMk-26">
          <mxGeometry x="-0.9665" relative="1" as="geometry">
            <mxPoint x="6" y="-10" as="offset" />
          </mxGeometry>
        </mxCell>
        <mxCell id="KXYTQ8t8NPIV74K7IWMk-31" value="" style="edgeStyle=orthogonalEdgeStyle;rounded=0;orthogonalLoop=1;jettySize=auto;html=1;" edge="1" parent="1" source="KXYTQ8t8NPIV74K7IWMk-28" target="KXYTQ8t8NPIV74K7IWMk-30">
          <mxGeometry relative="1" as="geometry" />
        </mxCell>
        <mxCell id="KXYTQ8t8NPIV74K7IWMk-97" value="V" style="edgeLabel;html=1;align=center;verticalAlign=middle;resizable=0;points=[];" vertex="1" connectable="0" parent="KXYTQ8t8NPIV74K7IWMk-31">
          <mxGeometry x="-0.4874" relative="1" as="geometry">
            <mxPoint x="10" y="-13" as="offset" />
          </mxGeometry>
        </mxCell>
        <mxCell id="KXYTQ8t8NPIV74K7IWMk-33" value="" style="edgeStyle=orthogonalEdgeStyle;rounded=0;orthogonalLoop=1;jettySize=auto;html=1;entryX=0.5;entryY=0;entryDx=0;entryDy=0;" edge="1" parent="1" source="KXYTQ8t8NPIV74K7IWMk-28" target="KXYTQ8t8NPIV74K7IWMk-32">
          <mxGeometry relative="1" as="geometry" />
        </mxCell>
        <mxCell id="KXYTQ8t8NPIV74K7IWMk-98" value="F" style="edgeLabel;html=1;align=center;verticalAlign=middle;resizable=0;points=[];" vertex="1" connectable="0" parent="KXYTQ8t8NPIV74K7IWMk-33">
          <mxGeometry x="-0.6635" y="1" relative="1" as="geometry">
            <mxPoint x="-15" y="-9" as="offset" />
          </mxGeometry>
        </mxCell>
        <mxCell id="KXYTQ8t8NPIV74K7IWMk-28" value="voto = 2" style="rhombus;whiteSpace=wrap;html=1;strokeWidth=1;rounded=1;arcSize=0;" vertex="1" parent="1">
          <mxGeometry x="322" y="570" width="80" height="80" as="geometry" />
        </mxCell>
        <mxCell id="KXYTQ8t8NPIV74K7IWMk-48" style="edgeStyle=orthogonalEdgeStyle;rounded=0;orthogonalLoop=1;jettySize=auto;html=1;exitX=0.5;exitY=1;exitDx=0;exitDy=0;" edge="1" parent="1" source="KXYTQ8t8NPIV74K7IWMk-30">
          <mxGeometry relative="1" as="geometry">
            <mxPoint x="362.2857142857142" y="1070" as="targetPoint" />
          </mxGeometry>
        </mxCell>
        <mxCell id="KXYTQ8t8NPIV74K7IWMk-30" value="somar 1 ao contador do candidato 2" style="whiteSpace=wrap;html=1;strokeWidth=1;rounded=1;arcSize=0;" vertex="1" parent="1">
          <mxGeometry x="302" y="740" width="120" height="60" as="geometry" />
        </mxCell>
        <mxCell id="KXYTQ8t8NPIV74K7IWMk-35" value="" style="edgeStyle=orthogonalEdgeStyle;rounded=0;orthogonalLoop=1;jettySize=auto;html=1;" edge="1" parent="1" source="KXYTQ8t8NPIV74K7IWMk-32" target="KXYTQ8t8NPIV74K7IWMk-34">
          <mxGeometry relative="1" as="geometry" />
        </mxCell>
        <mxCell id="KXYTQ8t8NPIV74K7IWMk-99" value="V" style="edgeLabel;html=1;align=center;verticalAlign=middle;resizable=0;points=[];" vertex="1" connectable="0" parent="KXYTQ8t8NPIV74K7IWMk-35">
          <mxGeometry x="-0.3877" y="2" relative="1" as="geometry">
            <mxPoint x="8" y="-18" as="offset" />
          </mxGeometry>
        </mxCell>
        <mxCell id="KXYTQ8t8NPIV74K7IWMk-37" value="" style="edgeStyle=orthogonalEdgeStyle;rounded=0;orthogonalLoop=1;jettySize=auto;html=1;entryX=0.5;entryY=0;entryDx=0;entryDy=0;" edge="1" parent="1" source="KXYTQ8t8NPIV74K7IWMk-32" target="KXYTQ8t8NPIV74K7IWMk-36">
          <mxGeometry relative="1" as="geometry" />
        </mxCell>
        <mxCell id="KXYTQ8t8NPIV74K7IWMk-100" value="F" style="edgeLabel;html=1;align=center;verticalAlign=middle;resizable=0;points=[];" vertex="1" connectable="0" parent="KXYTQ8t8NPIV74K7IWMk-37">
          <mxGeometry x="-0.6911" y="-2" relative="1" as="geometry">
            <mxPoint x="-13" y="-12" as="offset" />
          </mxGeometry>
        </mxCell>
        <mxCell id="KXYTQ8t8NPIV74K7IWMk-32" value="voto = 3" style="rhombus;whiteSpace=wrap;html=1;strokeWidth=1;rounded=1;arcSize=0;" vertex="1" parent="1">
          <mxGeometry x="460" y="640" width="80" height="80" as="geometry" />
        </mxCell>
        <mxCell id="KXYTQ8t8NPIV74K7IWMk-49" style="edgeStyle=orthogonalEdgeStyle;rounded=0;orthogonalLoop=1;jettySize=auto;html=1;exitX=0.5;exitY=1;exitDx=0;exitDy=0;" edge="1" parent="1" source="KXYTQ8t8NPIV74K7IWMk-34">
          <mxGeometry relative="1" as="geometry">
            <mxPoint x="500.2857142857142" y="1070" as="targetPoint" />
          </mxGeometry>
        </mxCell>
        <mxCell id="KXYTQ8t8NPIV74K7IWMk-34" value="somar 1 ao contador do candidato 3" style="whiteSpace=wrap;html=1;strokeWidth=1;rounded=1;arcSize=0;" vertex="1" parent="1">
          <mxGeometry x="440" y="810" width="120" height="60" as="geometry" />
        </mxCell>
        <mxCell id="KXYTQ8t8NPIV74K7IWMk-39" value="" style="edgeStyle=orthogonalEdgeStyle;rounded=0;orthogonalLoop=1;jettySize=auto;html=1;" edge="1" parent="1" source="KXYTQ8t8NPIV74K7IWMk-36" target="KXYTQ8t8NPIV74K7IWMk-38">
          <mxGeometry relative="1" as="geometry" />
        </mxCell>
        <mxCell id="KXYTQ8t8NPIV74K7IWMk-101" value="V" style="edgeLabel;html=1;align=center;verticalAlign=middle;resizable=0;points=[];" vertex="1" connectable="0" parent="KXYTQ8t8NPIV74K7IWMk-39">
          <mxGeometry x="-0.4874" relative="1" as="geometry">
            <mxPoint x="15" y="-13" as="offset" />
          </mxGeometry>
        </mxCell>
        <mxCell id="KXYTQ8t8NPIV74K7IWMk-41" value="" style="edgeStyle=orthogonalEdgeStyle;rounded=0;orthogonalLoop=1;jettySize=auto;html=1;entryX=0.5;entryY=0;entryDx=0;entryDy=0;" edge="1" parent="1" source="KXYTQ8t8NPIV74K7IWMk-36" target="KXYTQ8t8NPIV74K7IWMk-40">
          <mxGeometry relative="1" as="geometry" />
        </mxCell>
        <mxCell id="KXYTQ8t8NPIV74K7IWMk-102" value="F" style="edgeLabel;html=1;align=center;verticalAlign=middle;resizable=0;points=[];" vertex="1" connectable="0" parent="KXYTQ8t8NPIV74K7IWMk-41">
          <mxGeometry x="-0.7096" y="1" relative="1" as="geometry">
            <mxPoint x="-12" y="-9" as="offset" />
          </mxGeometry>
        </mxCell>
        <mxCell id="KXYTQ8t8NPIV74K7IWMk-36" value="voto = 5" style="rhombus;whiteSpace=wrap;html=1;strokeWidth=1;rounded=1;arcSize=0;" vertex="1" parent="1">
          <mxGeometry x="602" y="710" width="80" height="80" as="geometry" />
        </mxCell>
        <mxCell id="KXYTQ8t8NPIV74K7IWMk-50" style="edgeStyle=orthogonalEdgeStyle;rounded=0;orthogonalLoop=1;jettySize=auto;html=1;exitX=0.5;exitY=1;exitDx=0;exitDy=0;" edge="1" parent="1" source="KXYTQ8t8NPIV74K7IWMk-38">
          <mxGeometry relative="1" as="geometry">
            <mxPoint x="642.2857142857142" y="1070" as="targetPoint" />
          </mxGeometry>
        </mxCell>
        <mxCell id="KXYTQ8t8NPIV74K7IWMk-38" value="somar 1 ao contador de votos &quot;brancos&quot;" style="whiteSpace=wrap;html=1;strokeWidth=1;rounded=1;arcSize=0;" vertex="1" parent="1">
          <mxGeometry x="582" y="880" width="120" height="60" as="geometry" />
        </mxCell>
        <mxCell id="KXYTQ8t8NPIV74K7IWMk-43" value="" style="edgeStyle=orthogonalEdgeStyle;rounded=0;orthogonalLoop=1;jettySize=auto;html=1;" edge="1" parent="1" source="KXYTQ8t8NPIV74K7IWMk-40" target="KXYTQ8t8NPIV74K7IWMk-42">
          <mxGeometry relative="1" as="geometry" />
        </mxCell>
        <mxCell id="KXYTQ8t8NPIV74K7IWMk-103" value="V" style="edgeLabel;html=1;align=center;verticalAlign=middle;resizable=0;points=[];" vertex="1" connectable="0" parent="KXYTQ8t8NPIV74K7IWMk-43">
          <mxGeometry x="-0.4797" y="-2" relative="1" as="geometry">
            <mxPoint x="12" y="-13" as="offset" />
          </mxGeometry>
        </mxCell>
        <mxCell id="KXYTQ8t8NPIV74K7IWMk-45" value="" style="edgeStyle=orthogonalEdgeStyle;rounded=0;orthogonalLoop=1;jettySize=auto;html=1;entryX=1;entryY=0.5;entryDx=0;entryDy=0;exitX=1;exitY=0.5;exitDx=0;exitDy=0;" edge="1" parent="1" source="KXYTQ8t8NPIV74K7IWMk-40" target="KXYTQ8t8NPIV74K7IWMk-22">
          <mxGeometry relative="1" as="geometry">
            <mxPoint x="1025" y="850" as="targetPoint" />
            <Array as="points">
              <mxPoint x="890" y="820" />
              <mxPoint x="890" y="1070" />
            </Array>
          </mxGeometry>
        </mxCell>
        <mxCell id="KXYTQ8t8NPIV74K7IWMk-104" value="F" style="edgeLabel;html=1;align=center;verticalAlign=middle;resizable=0;points=[];" vertex="1" connectable="0" parent="KXYTQ8t8NPIV74K7IWMk-45">
          <mxGeometry x="-0.9511" y="-2" relative="1" as="geometry">
            <mxPoint x="-16" y="-12" as="offset" />
          </mxGeometry>
        </mxCell>
        <mxCell id="KXYTQ8t8NPIV74K7IWMk-40" value="voto = 8" style="rhombus;whiteSpace=wrap;html=1;strokeWidth=1;rounded=1;arcSize=0;" vertex="1" parent="1">
          <mxGeometry x="748" y="780" width="80" height="80" as="geometry" />
        </mxCell>
        <mxCell id="KXYTQ8t8NPIV74K7IWMk-51" style="edgeStyle=orthogonalEdgeStyle;rounded=0;orthogonalLoop=1;jettySize=auto;html=1;exitX=0.5;exitY=1;exitDx=0;exitDy=0;" edge="1" parent="1" source="KXYTQ8t8NPIV74K7IWMk-42">
          <mxGeometry relative="1" as="geometry">
            <mxPoint x="788.2857142857142" y="1070" as="targetPoint" />
          </mxGeometry>
        </mxCell>
        <mxCell id="KXYTQ8t8NPIV74K7IWMk-42" value="somar 1 ao contador de votos &quot;nulos&quot;" style="whiteSpace=wrap;html=1;strokeWidth=1;rounded=1;arcSize=0;" vertex="1" parent="1">
          <mxGeometry x="728" y="950" width="120" height="60" as="geometry" />
        </mxCell>
        <mxCell id="KXYTQ8t8NPIV74K7IWMk-60" value="" style="edgeStyle=orthogonalEdgeStyle;rounded=0;orthogonalLoop=1;jettySize=auto;html=1;" edge="1" parent="1" source="KXYTQ8t8NPIV74K7IWMk-54" target="KXYTQ8t8NPIV74K7IWMk-59">
          <mxGeometry relative="1" as="geometry" />
        </mxCell>
        <mxCell id="KXYTQ8t8NPIV74K7IWMk-54" value="Total de votos&amp;nbsp;&lt;br&gt;válidos do&lt;br&gt;candidato 1" style="shape=display;whiteSpace=wrap;html=1;size=0.15384615384615385;" vertex="1" parent="1">
          <mxGeometry x="1010" y="40" width="130" height="60" as="geometry" />
        </mxCell>
        <mxCell id="KXYTQ8t8NPIV74K7IWMk-57" style="edgeStyle=orthogonalEdgeStyle;rounded=0;orthogonalLoop=1;jettySize=auto;html=1;exitX=0.5;exitY=1;exitDx=0;exitDy=0;entryX=0;entryY=0.5;entryDx=0;entryDy=0;entryPerimeter=0;" edge="1" parent="1" source="KXYTQ8t8NPIV74K7IWMk-22" target="KXYTQ8t8NPIV74K7IWMk-54">
          <mxGeometry relative="1" as="geometry">
            <Array as="points">
              <mxPoint x="225" y="1140" />
              <mxPoint x="950" y="1140" />
              <mxPoint x="950" y="70" />
            </Array>
          </mxGeometry>
        </mxCell>
        <mxCell id="KXYTQ8t8NPIV74K7IWMk-58" value="F" style="edgeLabel;html=1;align=center;verticalAlign=middle;resizable=0;points=[];" vertex="1" connectable="0" parent="KXYTQ8t8NPIV74K7IWMk-57">
          <mxGeometry x="-0.5954" relative="1" as="geometry">
            <mxPoint x="-332" y="-20" as="offset" />
          </mxGeometry>
        </mxCell>
        <mxCell id="KXYTQ8t8NPIV74K7IWMk-62" value="" style="edgeStyle=orthogonalEdgeStyle;rounded=0;orthogonalLoop=1;jettySize=auto;html=1;" edge="1" parent="1" source="KXYTQ8t8NPIV74K7IWMk-59" target="KXYTQ8t8NPIV74K7IWMk-61">
          <mxGeometry relative="1" as="geometry" />
        </mxCell>
        <mxCell id="KXYTQ8t8NPIV74K7IWMk-59" value="Total de votos&amp;nbsp;&lt;br&gt;válidos do&lt;br&gt;candidato 2" style="shape=display;whiteSpace=wrap;html=1;size=0.15384615384615385;" vertex="1" parent="1">
          <mxGeometry x="1010" y="150" width="130" height="60" as="geometry" />
        </mxCell>
        <mxCell id="KXYTQ8t8NPIV74K7IWMk-64" value="" style="edgeStyle=orthogonalEdgeStyle;rounded=0;orthogonalLoop=1;jettySize=auto;html=1;" edge="1" parent="1" source="KXYTQ8t8NPIV74K7IWMk-61" target="KXYTQ8t8NPIV74K7IWMk-63">
          <mxGeometry relative="1" as="geometry" />
        </mxCell>
        <mxCell id="KXYTQ8t8NPIV74K7IWMk-61" value="Total de votos&amp;nbsp;&lt;br&gt;válidos do&lt;br&gt;candidato 3" style="shape=display;whiteSpace=wrap;html=1;size=0.15384615384615385;" vertex="1" parent="1">
          <mxGeometry x="1010" y="260" width="130" height="60" as="geometry" />
        </mxCell>
        <mxCell id="KXYTQ8t8NPIV74K7IWMk-66" value="" style="edgeStyle=orthogonalEdgeStyle;rounded=0;orthogonalLoop=1;jettySize=auto;html=1;" edge="1" parent="1" source="KXYTQ8t8NPIV74K7IWMk-63" target="KXYTQ8t8NPIV74K7IWMk-65">
          <mxGeometry relative="1" as="geometry" />
        </mxCell>
        <mxCell id="KXYTQ8t8NPIV74K7IWMk-63" value="Total de votos&amp;nbsp;&lt;br&gt;em branco" style="shape=display;whiteSpace=wrap;html=1;size=0.15384615384615385;" vertex="1" parent="1">
          <mxGeometry x="1010" y="360" width="130" height="60" as="geometry" />
        </mxCell>
        <mxCell id="KXYTQ8t8NPIV74K7IWMk-68" value="" style="edgeStyle=orthogonalEdgeStyle;rounded=0;orthogonalLoop=1;jettySize=auto;html=1;" edge="1" parent="1" source="KXYTQ8t8NPIV74K7IWMk-65" target="KXYTQ8t8NPIV74K7IWMk-67">
          <mxGeometry relative="1" as="geometry" />
        </mxCell>
        <mxCell id="KXYTQ8t8NPIV74K7IWMk-65" value="Total de votos&amp;nbsp;&lt;br&gt;nulos" style="shape=display;whiteSpace=wrap;html=1;size=0.15384615384615385;" vertex="1" parent="1">
          <mxGeometry x="1010" y="470" width="130" height="60" as="geometry" />
        </mxCell>
        <mxCell id="KXYTQ8t8NPIV74K7IWMk-70" value="" style="edgeStyle=orthogonalEdgeStyle;rounded=0;orthogonalLoop=1;jettySize=auto;html=1;" edge="1" parent="1" source="KXYTQ8t8NPIV74K7IWMk-67">
          <mxGeometry relative="1" as="geometry">
            <mxPoint x="1075" y="778" as="targetPoint" />
          </mxGeometry>
        </mxCell>
        <mxCell id="KXYTQ8t8NPIV74K7IWMk-83" value="V" style="edgeLabel;html=1;align=center;verticalAlign=middle;resizable=0;points=[];" vertex="1" connectable="0" parent="KXYTQ8t8NPIV74K7IWMk-70">
          <mxGeometry x="-0.5124" y="-1" relative="1" as="geometry">
            <mxPoint x="11" y="-14" as="offset" />
          </mxGeometry>
        </mxCell>
        <mxCell id="KXYTQ8t8NPIV74K7IWMk-72" value="" style="edgeStyle=orthogonalEdgeStyle;rounded=0;orthogonalLoop=1;jettySize=auto;html=1;entryX=0.5;entryY=0;entryDx=0;entryDy=0;" edge="1" parent="1" source="KXYTQ8t8NPIV74K7IWMk-67" target="KXYTQ8t8NPIV74K7IWMk-71">
          <mxGeometry relative="1" as="geometry" />
        </mxCell>
        <mxCell id="KXYTQ8t8NPIV74K7IWMk-84" value="F" style="edgeLabel;html=1;align=center;verticalAlign=middle;resizable=0;points=[];" vertex="1" connectable="0" parent="KXYTQ8t8NPIV74K7IWMk-72">
          <mxGeometry x="-0.4875" y="-3" relative="1" as="geometry">
            <mxPoint x="-31" y="-13" as="offset" />
          </mxGeometry>
        </mxCell>
        <mxCell id="KXYTQ8t8NPIV74K7IWMk-67" value="c1 &amp;gt; c2 &lt;br&gt;E &lt;br&gt;c1 &amp;gt; c3" style="rhombus;whiteSpace=wrap;html=1;" vertex="1" parent="1">
          <mxGeometry x="1025" y="578" width="100" height="100" as="geometry" />
        </mxCell>
        <mxCell id="KXYTQ8t8NPIV74K7IWMk-74" value="" style="edgeStyle=orthogonalEdgeStyle;rounded=0;orthogonalLoop=1;jettySize=auto;html=1;entryX=0.5;entryY=0;entryDx=0;entryDy=0;" edge="1" parent="1" source="KXYTQ8t8NPIV74K7IWMk-71" target="KXYTQ8t8NPIV74K7IWMk-73">
          <mxGeometry relative="1" as="geometry" />
        </mxCell>
        <mxCell id="KXYTQ8t8NPIV74K7IWMk-86" value="F" style="edgeLabel;html=1;align=center;verticalAlign=middle;resizable=0;points=[];" vertex="1" connectable="0" parent="KXYTQ8t8NPIV74K7IWMk-74">
          <mxGeometry x="-0.7354" y="-2" relative="1" as="geometry">
            <mxPoint x="-7" y="-12" as="offset" />
          </mxGeometry>
        </mxCell>
        <mxCell id="KXYTQ8t8NPIV74K7IWMk-76" value="" style="edgeStyle=orthogonalEdgeStyle;rounded=0;orthogonalLoop=1;jettySize=auto;html=1;" edge="1" parent="1" source="KXYTQ8t8NPIV74K7IWMk-71">
          <mxGeometry relative="1" as="geometry">
            <mxPoint x="1225" y="838" as="targetPoint" />
          </mxGeometry>
        </mxCell>
        <mxCell id="KXYTQ8t8NPIV74K7IWMk-85" value="V" style="edgeLabel;html=1;align=center;verticalAlign=middle;resizable=0;points=[];" vertex="1" connectable="0" parent="KXYTQ8t8NPIV74K7IWMk-76">
          <mxGeometry x="-0.3085" y="-2" relative="1" as="geometry">
            <mxPoint x="12" y="-18" as="offset" />
          </mxGeometry>
        </mxCell>
        <mxCell id="KXYTQ8t8NPIV74K7IWMk-71" value="c2 &amp;gt; c1&lt;br&gt;E&lt;br&gt;c2 &amp;gt; c3" style="rhombus;whiteSpace=wrap;html=1;" vertex="1" parent="1">
          <mxGeometry x="1175" y="658" width="100" height="100" as="geometry" />
        </mxCell>
        <mxCell id="KXYTQ8t8NPIV74K7IWMk-80" style="edgeStyle=orthogonalEdgeStyle;rounded=0;orthogonalLoop=1;jettySize=auto;html=1;exitX=0.5;exitY=1;exitDx=0;exitDy=0;" edge="1" parent="1" source="KXYTQ8t8NPIV74K7IWMk-73" target="KXYTQ8t8NPIV74K7IWMk-79">
          <mxGeometry relative="1" as="geometry" />
        </mxCell>
        <mxCell id="KXYTQ8t8NPIV74K7IWMk-87" value="V" style="edgeLabel;html=1;align=center;verticalAlign=middle;resizable=0;points=[];" vertex="1" connectable="0" parent="KXYTQ8t8NPIV74K7IWMk-80">
          <mxGeometry x="-0.1556" y="2" relative="1" as="geometry">
            <mxPoint x="13" y="-15" as="offset" />
          </mxGeometry>
        </mxCell>
        <mxCell id="KXYTQ8t8NPIV74K7IWMk-73" value="c3 &amp;gt; c1&lt;br&gt;E&lt;br&gt;c3 &amp;gt; c2" style="rhombus;whiteSpace=wrap;html=1;" vertex="1" parent="1">
          <mxGeometry x="1317" y="738" width="100" height="100" as="geometry" />
        </mxCell>
        <mxCell id="KXYTQ8t8NPIV74K7IWMk-77" value="O candidato 2 é o ganhador" style="shape=display;whiteSpace=wrap;html=1;size=0.15384615384615385;" vertex="1" parent="1">
          <mxGeometry x="1160" y="838" width="130" height="60" as="geometry" />
        </mxCell>
        <mxCell id="KXYTQ8t8NPIV74K7IWMk-90" value="" style="edgeStyle=orthogonalEdgeStyle;rounded=0;orthogonalLoop=1;jettySize=auto;html=1;" edge="1" parent="1" source="KXYTQ8t8NPIV74K7IWMk-78" target="KXYTQ8t8NPIV74K7IWMk-89">
          <mxGeometry relative="1" as="geometry" />
        </mxCell>
        <mxCell id="KXYTQ8t8NPIV74K7IWMk-78" value="O candidato 1 é o ganhador" style="shape=display;whiteSpace=wrap;html=1;size=0.15384615384615385;" vertex="1" parent="1">
          <mxGeometry x="1010" y="778" width="130" height="60" as="geometry" />
        </mxCell>
        <mxCell id="KXYTQ8t8NPIV74K7IWMk-79" value="O candidato 3 é o ganhador" style="shape=display;whiteSpace=wrap;html=1;size=0.13846153846153847;" vertex="1" parent="1">
          <mxGeometry x="1302" y="898" width="130" height="60" as="geometry" />
        </mxCell>
        <mxCell id="KXYTQ8t8NPIV74K7IWMk-95" style="edgeStyle=orthogonalEdgeStyle;rounded=0;orthogonalLoop=1;jettySize=auto;html=1;exitX=0;exitY=0;exitDx=66.25;exitDy=60;exitPerimeter=0;entryX=1;entryY=0.5;entryDx=0;entryDy=0;" edge="1" parent="1" source="KXYTQ8t8NPIV74K7IWMk-81" target="KXYTQ8t8NPIV74K7IWMk-93">
          <mxGeometry relative="1" as="geometry" />
        </mxCell>
        <mxCell id="KXYTQ8t8NPIV74K7IWMk-81" value="Empate" style="shape=display;whiteSpace=wrap;html=1;size=0.13846153846153847;" vertex="1" parent="1">
          <mxGeometry x="1417" y="1010" width="130" height="60" as="geometry" />
        </mxCell>
        <mxCell id="KXYTQ8t8NPIV74K7IWMk-82" style="edgeStyle=orthogonalEdgeStyle;rounded=0;orthogonalLoop=1;jettySize=auto;html=1;exitX=1;exitY=0.5;exitDx=0;exitDy=0;entryX=0;entryY=0;entryDx=66.25;entryDy=0;entryPerimeter=0;" edge="1" parent="1" source="KXYTQ8t8NPIV74K7IWMk-73" target="KXYTQ8t8NPIV74K7IWMk-81">
          <mxGeometry relative="1" as="geometry" />
        </mxCell>
        <mxCell id="KXYTQ8t8NPIV74K7IWMk-88" value="F" style="edgeLabel;html=1;align=center;verticalAlign=middle;resizable=0;points=[];" vertex="1" connectable="0" parent="KXYTQ8t8NPIV74K7IWMk-82">
          <mxGeometry x="-0.8081" y="-2" relative="1" as="geometry">
            <mxPoint x="-14" y="-12" as="offset" />
          </mxGeometry>
        </mxCell>
        <mxCell id="KXYTQ8t8NPIV74K7IWMk-94" style="edgeStyle=orthogonalEdgeStyle;rounded=0;orthogonalLoop=1;jettySize=auto;html=1;exitX=0;exitY=0;exitDx=66.25;exitDy=60;exitPerimeter=0;entryX=0.5;entryY=0;entryDx=0;entryDy=0;" edge="1" parent="1" source="KXYTQ8t8NPIV74K7IWMk-89" target="KXYTQ8t8NPIV74K7IWMk-93">
          <mxGeometry relative="1" as="geometry" />
        </mxCell>
        <mxCell id="KXYTQ8t8NPIV74K7IWMk-89" value="Total de votos do ganhador + brancos" style="shape=display;whiteSpace=wrap;html=1;size=0.15384615384615385;" vertex="1" parent="1">
          <mxGeometry x="1010" y="970" width="130" height="60" as="geometry" />
        </mxCell>
        <mxCell id="KXYTQ8t8NPIV74K7IWMk-91" style="edgeStyle=orthogonalEdgeStyle;rounded=0;orthogonalLoop=1;jettySize=auto;html=1;exitX=0;exitY=0;exitDx=66.25;exitDy=60;exitPerimeter=0;entryX=0;entryY=0;entryDx=100;entryDy=0;entryPerimeter=0;" edge="1" parent="1" source="KXYTQ8t8NPIV74K7IWMk-77" target="KXYTQ8t8NPIV74K7IWMk-89">
          <mxGeometry relative="1" as="geometry" />
        </mxCell>
        <mxCell id="KXYTQ8t8NPIV74K7IWMk-92" style="edgeStyle=orthogonalEdgeStyle;rounded=0;orthogonalLoop=1;jettySize=auto;html=1;exitX=0;exitY=0;exitDx=66.25;exitDy=60;exitPerimeter=0;entryX=1;entryY=0.5;entryDx=0;entryDy=0;entryPerimeter=0;" edge="1" parent="1" source="KXYTQ8t8NPIV74K7IWMk-79" target="KXYTQ8t8NPIV74K7IWMk-89">
          <mxGeometry relative="1" as="geometry" />
        </mxCell>
        <mxCell id="KXYTQ8t8NPIV74K7IWMk-93" value="Fim" style="rounded=1;whiteSpace=wrap;html=1;arcSize=50;" vertex="1" parent="1">
          <mxGeometry x="1030" y="1090" width="90" height="40" as="geometry" />
        </mxCell>
      </root>
    </mxGraphModel>
  </diagram>
</mxfile>
